# xmcd CD database file generated by Grip 3.2.0
# 
# Track frame offsets:
#       150
#       11162
#       25962
#       35496
#       48059
#       60209
#       69997
#       81997
#       96507
#       108878
#       120767
#       136074
#       151219
#       159765
#       175551
# 
# Disc length: 2515 seconds
# 
# Revision: 1
# Processed by: cddbd v1.5.2PL0 Copyright (c) Steve Scherf et al.
# Submitted via: Grip 3.2.0
# 
DISCID=a409d10f
DTITLE=Frank Sinatra - All of Me
DYEAR=2010
DGENRE=Swing
TTITLE0=I Am Loved
TTITLE1=Body and Soul
TTITLE2=All of Me
TTITLE3=Falling in Love with You
TTITLE4=Anything Goes
TTITLE5=I've Got The World on A String
TTITLE6=Love Is Here to Stay
TTITLE7=I Only Have Eyes for You
TTITLE8=Baubles, Bangles, And Beads
TTITLE9=A Foggy Day
TTITLE10=No One Ever Tells You
TTITLE11=I See Your Face Before Me
TTITLE12=Saturday Night
TTITLE13=I've Got You Under My Skin
TTITLE14=Someone to Watch Over Me
EXTD=
EXTT0=
EXTT1=
EXTT2=
EXTT3=
EXTT4=
EXTT5=
EXTT6=
EXTT7=
EXTT8=
EXTT9=
EXTT10=
EXTT11=
EXTT12=
EXTT13=
EXTT14=
PLAYORDER=
